G04 ================== begin FILE IDENTIFICATION RECORD ==================*
G04 Layout Name:  HUMAN_INTERFACE_FINAL.brd*
G04 Film Name:    BOTTOM*
G04 File Format:  Gerber RS274X*
G04 File Origin:  Cadence Allegro 17.2-S025*
G04 Origin Date:  Mon Sep 04 13:11:50 2023*
G04 *
G04 Layer:  ETCH/BOTTOM*
G04 Layer:  PIN/BOTTOM*
G04 Layer:  VIA CLASS/BOTTOM*
G04 *
G04 Offset:    (0.00 0.00)*
G04 Mirror:    No*
G04 Mode:      Positive*
G04 Rotation:  0*
G04 FullContactRelief:  No*
G04 UndefLineWidth:     0.00*
G04 ================== end FILE IDENTIFICATION RECORD ====================*
%FSLAX25Y25*MOIN*%
%IR0*IPPOS*OFA0.00000B0.00000*MIA0B0*SFA1.00000B1.00000*%
%ADD10C,.03*%
%ADD17C,.06*%
%ADD14C,.024*%
%ADD16C,.026*%
%ADD19C,.055*%
%ADD11C,.065*%
%ADD13C,.049*%
%ADD18R,.055X.055*%
%ADD15C,.04724*%
%ADD12R,.049X.049*%
%ADD20C,.012*%
%ADD21C,.044*%
%ADD22C,.005*%
%ADD29C,.07004*%
%ADD28C,.08304*%
%ADD24C,.09304*%
%ADD23C,.07504*%
%ADD25C,.07704*%
%ADD27C,.08804*%
%ADD26C,.05728*%
G75*
%LPD*%
G75*
G36*
G01X1016500Y852500D02*
Y1027517D01*
G02X1016841Y1027659I200J0D01*
G01X1017000Y1027500D01*
X1031500D01*
Y1040500D01*
X1035000Y1044000D01*
X1268000D01*
Y1028500D01*
X1279000D01*
X1284000Y1023500D01*
Y851500D01*
X1268500D01*
Y837000D01*
X1267000Y835500D01*
X1031483D01*
G02X1031341Y835841I0J200D01*
G01X1031500Y836000D01*
Y851500D01*
X1017500D01*
X1016500Y852500D01*
G37*
%LPC*%
G75*
G36*
G01X1164338Y904502D02*
G02Y900498I1662J-2002D01*
G01X1158663D01*
G02Y904502I-1663J2002D01*
G01X1164338D01*
G37*
G36*
G01X1265348Y974750D02*
Y980250D01*
G02X1266750Y981652I1402J0D01*
G01X1272250D01*
G02X1273652Y980250I0J-1402D01*
G01Y974750D01*
G02X1272250Y973348I-1402J0D01*
G01X1266750D01*
G02X1265348Y974750I0J1402D01*
G37*
G36*
G01X1048548Y961050D02*
Y965950D01*
G02X1049050Y966452I502J0D01*
G01X1053950D01*
G02X1054452Y965950I0J-502D01*
G01Y961050D01*
G02X1053950Y960548I-502J0D01*
G01X1049050D01*
G02X1048548Y961050I0J502D01*
G37*
G36*
G01X1207822Y977400D02*
G03X1207178I-322J-236D01*
G02Y980600I-2178J1600D01*
G03X1207822I322J236D01*
G02Y977400I2178J-1600D01*
G37*
G36*
G01X1209646Y938334D02*
G03X1209166Y937854I-91J-389D01*
G02X1206354Y940666I-3666J-854D01*
G03X1206834Y941146I91J389D01*
G02X1209646Y938334I3666J854D01*
G37*
G36*
G01X1184146Y849834D02*
G03X1183666Y849354I-91J-389D01*
G02X1176334I-3666J-854D01*
G03X1175854Y849834I-389J91D01*
G02X1178666Y852646I-854J3666D01*
G03X1179146Y852166I389J-91D01*
G02X1180854I854J-3666D01*
G03X1181334Y852646I91J389D01*
G02X1184146Y849834I3666J854D01*
G37*
G36*
G01X1191002Y916671D02*
X1184591Y910261D01*
G02X1181761Y913091I-2591J239D01*
G01X1186998Y918329D01*
Y932837D01*
G02X1186450Y935019I2002J1663D01*
G03X1186058Y935498I-392J79D01*
G01X1183663D01*
G02X1179416Y937192I-1663J2002D01*
G01X1179408Y937261D01*
X1176671Y939998D01*
X1155340D01*
G03X1155074Y939299I0J-400D01*
G02X1151688Y935348I-1724J-1949D01*
G01X1110163D01*
G02Y939352I-1663J2002D01*
G01X1142510D01*
G03X1142775Y940051I0J400D01*
G02X1146163Y944002I1724J1950D01*
G01X1178329D01*
X1182238Y940093D01*
X1182307Y940084D01*
G02X1183663Y939502I-306J-2584D01*
G01X1186645D01*
X1186845Y939702D01*
X1195638D01*
G02Y935698I1662J-2002D01*
G01X1191894D01*
G03X1191509Y935192I0J-400D01*
G02X1191002Y932837I-2509J-692D01*
G01Y916671D01*
G37*
G36*
G01X1255992Y963102D02*
X1263047Y956047D01*
G02X1264102Y953500I-2547J-2547D01*
G01Y943000D01*
G02X1256898I-3602J0D01*
G01Y952008D01*
X1253008Y955898D01*
X1203500D01*
G02Y963102I0J3602D01*
G01X1255992D01*
G37*
G36*
G01X1191337Y858998D02*
X1162163D01*
G02Y863002I-1663J2002D01*
G01X1191337D01*
G02Y858998I1663J-2002D01*
G37*
G36*
G01X1150908Y897761D02*
X1147171Y901498D01*
X1126871D01*
X1124498Y903871D01*
Y910829D01*
X1137908Y924239D01*
X1137916Y924308D01*
G02X1140808Y921416I2584J-308D01*
G01X1140739Y921408D01*
X1128502Y909171D01*
Y905529D01*
X1128529Y905502D01*
X1148829D01*
X1153739Y900592D01*
X1153808Y900584D01*
G02X1150916Y897692I-308J-2584D01*
G01X1150908Y897761D01*
G37*
G54D29*
X1273000Y911500D03*
G54D28*
X1269500Y1022500D03*
G54D24*
X1034000Y927000D03*
X1073000Y852000D03*
Y892000D03*
X1074000Y932000D03*
X1080500Y974000D03*
X1113000Y888500D03*
Y928500D03*
X1120500Y974000D03*
X1197500Y1026500D03*
X1234500Y851500D03*
X1237500Y1026500D03*
X1149500Y1014000D03*
Y974000D03*
G54D23*
X1044000Y927000D03*
X1074000Y942000D03*
X1234500Y891500D03*
G54D25*
X1041500Y973500D03*
X1031500Y963500D03*
G54D27*
X1273000Y948000D03*
Y958000D03*
Y921500D03*
G54D26*
X1210500Y932000D03*
%LPD*%
G75*
G54D10*
X1020500Y840500D03*
Y1039500D03*
X1279500Y840500D03*
Y1039500D03*
G54D20*
G01X1108500Y937350D02*
X1153350D01*
G01X1153500Y898000D02*
X1148000Y903500D01*
X1127700D01*
X1126500Y904700D01*
Y910000D01*
X1140500Y924000D01*
G01X1160500Y861000D02*
X1193000D01*
G01X1157000Y902500D02*
X1166000D01*
G01X1144500Y942000D02*
X1177500D01*
X1182000Y937500D01*
G01X1189000Y934500D02*
Y917500D01*
X1182000Y910500D01*
G01Y937500D02*
X1187474D01*
X1187674Y937700D01*
X1197300D01*
G54D11*
X1044000Y927000D03*
X1034000D03*
X1073000Y852000D03*
Y892000D03*
X1074000Y932000D03*
Y942000D03*
X1080500Y974000D03*
X1113000Y888500D03*
Y928500D03*
X1120500Y974000D03*
X1149500D03*
Y1014000D03*
X1197500Y1026500D03*
X1234500Y851500D03*
Y891500D03*
X1237500Y1026500D03*
G54D21*
G01X1203500Y959500D02*
X1254500D01*
X1260500Y953500D01*
G01Y943000D02*
Y953500D01*
G54D12*
X1051500Y963500D03*
G54D22*
G01X1044000Y923048D02*
Y927000D01*
G01D02*
Y930952D01*
G01X1040048Y927000D02*
X1044000D01*
G01D02*
X1047952D01*
G01X1048348Y963500D02*
X1051500D01*
G01X1074000Y938048D02*
Y942000D01*
G01D02*
Y945952D01*
G01X1070048Y942000D02*
X1074000D01*
G01D02*
X1077952D01*
G01X1051500Y960348D02*
Y963500D01*
G01D02*
Y966652D01*
G01Y963500D02*
X1054652D01*
G01X1210500Y928936D02*
Y932000D01*
G01D02*
Y935064D01*
G01X1207436Y932000D02*
X1210500D01*
G01D02*
X1213564D01*
G01X1234500Y887548D02*
Y891500D01*
G01D02*
Y895452D01*
G01X1230548Y891500D02*
X1234500D01*
G01D02*
X1238452D01*
G01X1273000Y907798D02*
Y911500D01*
G01D02*
Y915202D01*
G01X1269298Y911500D02*
X1273000D01*
G01D02*
X1276702D01*
G54D13*
X1041500Y973500D03*
X1031500Y963500D03*
G54D14*
X1108500Y937350D03*
X1140500Y924000D03*
X1139500Y912500D03*
X1160500Y861000D03*
X1153500Y898000D03*
X1157000Y902500D03*
X1166000D03*
X1153350Y937350D03*
X1144500Y942000D03*
X1193000Y861000D03*
X1182000Y910500D03*
X1189000Y934500D03*
X1182000Y937500D03*
X1197300Y937700D03*
X1203500Y959500D03*
X1260500Y943000D03*
Y953500D03*
G54D15*
X1180000Y848500D03*
X1185000Y853500D03*
X1175000D03*
X1210500Y932000D03*
X1205500Y937000D03*
X1210500Y942000D03*
G54D16*
X1210000Y979000D03*
X1205000D03*
G54D17*
X1273000Y911500D03*
Y921500D03*
Y948000D03*
Y958000D03*
G54D18*
X1269500Y977500D03*
G54D19*
Y1022500D03*
M02*
