G04 ================== begin FILE IDENTIFICATION RECORD ==================*
G04 Layout Name:  HUMAN_INTERFACE_CAPACITIVE_SWITCH-SCHEMATIC.brd*
G04 Film Name:    SSBOTTOM*
G04 File Format:  Gerber RS274X*
G04 File Origin:  Cadence Allegro 17.2-S025*
G04 Origin Date:  Mon Jun 05 21:45:08 2023*
G04 *
G04 Layer:  VIA CLASS/SOLDERMASK_BOTTOM*
G04 Layer:  PIN/SOLDERMASK_BOTTOM*
G04 Layer:  DRC ERROR CLASS/SOLDERMASK_BOTTOM*
G04 Layer:  BOARD GEOMETRY/OUTLINE*
G04 Layer:  BOARD GEOMETRY/DESIGN_OUTLINE*
G04 *
G04 Offset:    (0.00 0.00)*
G04 Mirror:    No*
G04 Mode:      Positive*
G04 Rotation:  0*
G04 FullContactRelief:  No*
G04 UndefLineWidth:     8.00*
G04 ================== end FILE IDENTIFICATION RECORD ====================*
%FSLAX25Y25*MOIN*%
%IR0*IPPOS*OFA0.00000B0.00000*MIA0B0*SFA1.00000B1.00000*%
%ADD12C,.044*%
%ADD10C,.08*%
%ADD16C,.018*%
%ADD18C,.055*%
%ADD19C,.075*%
%ADD14C,.049*%
%ADD17R,.055X.055*%
%ADD15C,.04724*%
%ADD13R,.049X.049*%
%ADD11C,.2*%
%ADD20C,.008*%
G75*
%LPD*%
G75*
G54D10*
X1045000Y872500D03*
Y912500D03*
Y935000D03*
Y975000D03*
X1135000Y920000D03*
Y985000D03*
X1170000Y860000D03*
X1145000Y920000D03*
Y985000D03*
X1180000Y960000D03*
Y1000000D03*
X1200000Y1025000D03*
X1210000Y860000D03*
X1235000Y960000D03*
Y1000000D03*
X1240000Y1025000D03*
G54D20*
G01X1010000Y830000D02*
Y1050000D01*
X1290000D01*
Y830000D01*
X1010000D01*
G54D11*
X1030000Y850000D03*
Y1030000D03*
X1270000Y850000D03*
Y1030000D03*
G54D12*
X1084500Y898500D03*
X1100000D03*
X1100150Y944000D03*
X1095000Y942000D03*
X1104500Y944000D03*
X1139500Y850000D03*
X1135000Y920000D03*
X1118500Y914500D03*
X1134500Y985000D03*
X1135000D03*
X1157500Y974252D03*
X1210000Y935000D03*
X1215000Y940000D03*
Y989500D03*
X1240000Y860000D03*
X1248000Y968500D03*
X1260000Y1000000D03*
X1248000Y1005000D03*
X1275000Y920000D03*
G54D13*
X1120000Y850000D03*
G54D14*
X1130000Y860000D03*
X1140000Y850000D03*
G54D15*
Y1025000D03*
X1145000Y1030000D03*
X1150000Y1025000D03*
X1210000Y935000D03*
X1215000Y940000D03*
X1205000D03*
G54D16*
X1174500Y907500D03*
Y912500D03*
G54D17*
X1240000Y860000D03*
G54D18*
Y905000D03*
G54D19*
X1260000Y1000000D03*
Y1010000D03*
X1275000Y930000D03*
Y920000D03*
M02*
