G04 ================== begin FILE IDENTIFICATION RECORD ==================*
G04 Layout Name:  HUMAN_INTERFACE_FINAL.brd*
G04 Film Name:    TOP*
G04 File Format:  Gerber RS274X*
G04 File Origin:  Cadence Allegro 17.2-S025*
G04 Origin Date:  Mon Sep 04 13:11:32 2023*
G04 *
G04 Layer:  ETCH/TOP*
G04 Layer:  PIN/TOP*
G04 Layer:  VIA CLASS/TOP*
G04 *
G04 Offset:    (0.00 0.00)*
G04 Mirror:    No*
G04 Mode:      Positive*
G04 Rotation:  0*
G04 FullContactRelief:  No*
G04 UndefLineWidth:     10.00*
G04 ================== end FILE IDENTIFICATION RECORD ====================*
%FSLAX25Y25*MOIN*%
%IR0*IPPOS*OFA0.00000B0.00000*MIA0B0*SFA1.00000B1.00000*%
%ADD10C,.03*%
%ADD20C,.06*%
%ADD15C,.024*%
%ADD19C,.026*%
%ADD22C,.055*%
%ADD11C,.065*%
%ADD18R,.06X.06*%
%ADD14C,.049*%
%ADD21R,.055X.055*%
%ADD17C,.04724*%
%ADD13R,.049X.049*%
%ADD16R,.025X.05*%
%ADD12C,.5*%
%ADD23C,.012*%
%ADD24C,.044*%
%ADD25C,.005*%
G75*
%LPD*%
G75*
G54D10*
X1020500Y840500D03*
Y1039500D03*
X1279500Y840500D03*
Y1039500D03*
G54D11*
X1044000Y927000D03*
X1034000D03*
X1073000Y852000D03*
Y892000D03*
X1074000Y932000D03*
Y942000D03*
X1080500Y974000D03*
X1113000Y888500D03*
Y928500D03*
X1120500Y974000D03*
X1149500D03*
Y1014000D03*
X1197500Y1026500D03*
X1234500Y851500D03*
Y891500D03*
X1237500Y1026500D03*
G54D20*
X1273000Y911500D03*
Y921500D03*
Y948000D03*
Y958000D03*
G54D12*
X1057500Y1012500D03*
G54D21*
X1269500Y977500D03*
G54D13*
X1051500Y963500D03*
G54D22*
X1269500Y1022500D03*
G54D23*
G01X1034000Y927000D02*
Y891000D01*
X1073000Y852000D01*
G01X1034000Y927000D02*
Y957450D01*
X1031500Y959950D01*
Y963500D01*
G01X1041500Y973500D02*
X1075650D01*
X1076150Y974000D01*
X1080500D01*
G01X1073000Y852000D02*
X1076500Y848500D01*
X1180000D01*
G01X1160500Y861000D02*
X1140000Y881500D01*
X1083500D01*
X1073000Y892000D01*
G01X1074000Y932000D02*
X1086500Y919500D01*
X1117350D01*
X1144500Y892350D01*
Y888750D01*
G01X1057500Y1012500D02*
X1143650D01*
X1145150Y1014000D01*
X1149500D01*
G01X1145150Y974000D02*
X1108500Y937350D01*
G01X1085000Y968700D02*
X1084300Y968000D01*
G01X1113000Y888500D02*
X1136900D01*
X1137150Y888750D01*
X1139500D01*
G01D02*
X1144500D01*
G01X1139500Y930250D02*
Y925000D01*
X1140500Y924000D01*
G01X1154500Y908250D02*
Y918300D01*
X1153300Y919500D01*
X1140474D01*
X1136250Y923724D01*
Y933579D01*
X1140021Y937350D01*
X1147923D01*
X1149500Y938927D01*
Y949750D01*
G01X1113000Y928500D02*
Y934500D01*
X1123500Y945000D01*
X1143350D01*
X1144500Y946150D01*
G01X1120500Y974000D02*
X1145150D01*
G01X1157000Y902500D02*
Y899200D01*
X1155800Y898000D01*
X1153500D01*
G01X1149500Y888750D02*
X1154500D01*
G01D02*
X1159500D01*
G01X1144500Y908250D02*
Y897350D01*
X1149500Y892350D01*
Y888750D01*
G01X1164500D02*
Y899474D01*
X1162800Y901174D01*
Y901350D01*
X1159500Y904650D01*
Y908250D01*
G01X1153350Y937350D02*
X1150750Y934750D01*
X1145400D01*
X1144500Y933850D01*
Y930250D01*
G01X1149500Y908250D02*
Y904650D01*
X1151650Y902500D01*
X1157000D01*
G01X1166000D02*
Y906750D01*
X1164500Y908250D01*
G01X1182000Y910500D02*
X1179750Y908250D01*
X1169500D01*
G01X1189000Y934500D02*
Y940500D01*
X1179750Y949750D01*
X1169500D01*
G01X1164500D02*
Y946150D01*
X1173150Y937500D01*
X1182000D01*
G01X1144500Y949750D02*
Y946150D01*
G01D02*
Y942000D01*
G01X1159500Y949750D02*
X1154500D01*
G01X1149500Y974000D02*
X1145150D01*
G01X1193000Y861000D02*
X1192500D01*
X1185000Y853500D01*
G01X1234500Y851500D02*
X1229000D01*
X1228551Y851051D01*
X1187449D01*
X1185000Y853500D01*
G01X1197300Y937700D02*
X1201338D01*
X1202038Y937000D01*
X1205500D01*
G01X1205000Y979000D02*
X1206698Y980698D01*
Y991302D01*
X1197500Y1000500D01*
Y1026500D01*
G01X1273000Y948000D02*
X1216500D01*
X1210500Y942000D01*
G01X1210000Y979000D02*
Y945962D01*
X1210500Y945462D01*
Y942000D01*
G01X1210000Y979000D02*
X1214000Y983000D01*
Y984500D01*
G01X1205000Y979000D02*
X1201000Y983000D01*
Y984500D01*
G01X1269500Y1022500D02*
X1278000D01*
Y948000D01*
X1273000D01*
G54D14*
X1041500Y973500D03*
X1031500Y963500D03*
G54D24*
G01X1203500Y959500D02*
X1144050D01*
X1139500Y954950D01*
Y949750D01*
G01X1169500Y888750D02*
Y859000D01*
X1175000Y853500D01*
G01X1273000Y921500D02*
X1249500D01*
X1216750Y888750D01*
X1169500D01*
G01X1273000Y921500D02*
Y930500D01*
X1260500Y943000D01*
G01Y953500D02*
X1265000Y958000D01*
X1273000D01*
G01X1237500Y1026500D02*
Y981900D01*
X1241900Y977500D01*
X1269500D01*
G01D02*
X1273000Y974000D01*
Y958000D01*
G54D15*
X1108500Y937350D03*
X1140500Y924000D03*
X1139500Y912500D03*
X1160500Y861000D03*
X1153500Y898000D03*
X1157000Y902500D03*
X1166000D03*
X1153350Y937350D03*
X1144500Y942000D03*
X1193000Y861000D03*
X1182000Y910500D03*
X1189000Y934500D03*
X1182000Y937500D03*
X1197300Y937700D03*
X1203500Y959500D03*
X1260500Y943000D03*
Y953500D03*
G54D25*
G01X1127750Y925000D02*
X1128000Y924750D01*
G01X1139500Y908250D02*
Y912500D01*
G01X1149500Y930250D02*
Y929000D01*
X1151500Y927000D01*
X1157500D01*
X1159500Y929000D01*
Y930250D01*
G01X1169500D02*
X1205638D01*
X1207388Y932000D01*
X1210500D01*
G01X1164500Y930250D02*
X1169500D01*
G01X1164500D02*
X1159500D01*
G54D16*
X1139500Y888750D03*
Y930250D03*
Y908250D03*
Y949750D03*
X1164500Y888750D03*
X1169500D03*
X1159500D03*
X1149500D03*
X1154500D03*
X1144500D03*
Y930250D03*
X1149500D03*
X1154500D03*
X1159500D03*
X1164500D03*
X1169500D03*
Y908250D03*
X1164500D03*
X1159500D03*
X1154500D03*
X1149500D03*
X1144500D03*
Y949750D03*
X1149500D03*
X1159500D03*
X1154500D03*
X1164500D03*
X1169500D03*
G54D17*
X1180000Y848500D03*
X1185000Y853500D03*
X1175000D03*
X1210500Y932000D03*
X1205500Y937000D03*
X1210500Y942000D03*
G54D18*
X1201000Y984500D03*
X1214000D03*
G54D19*
X1210000Y979000D03*
X1205000D03*
M02*
